<?xml version="1.0" encoding="utf-8"?>
<!-- Generator: Adobe Illustrator 23.0.2, SVG Export Plug-In . SVG Version: 6.00 Build 0)  -->
<svg version="1.1" id="HR_Strategies_xA0_Image_1_" xmlns="http://www.w3.org/2000/svg" xmlns:xlink="http://www.w3.org/1999/xlink"
	 x="0px" y="0px" viewBox="0 0 129.36 135.84" style="enable-background:new 0 0 129.36 135.84;" xml:space="preserve">
<style type="text/css">
	.st0{fill:#4E6DA8;}
	.st1{fill:#FFFFFF;}
	.st2{fill:#FDFDFD;}
	.st3{fill:#909EC8;}
</style>
<g>
	<path class="st0" d="M129.52,0.17c0,37.63,0,75.26,0,113.04c-43.17,0-86.26,0-129.36,0c0-37.68,0-75.36,0-113.04
		C43.28,0.17,86.4,0.17,129.52,0.17z M1.36,111.93c42.39,0,84.64,0,126.87,0c0-36.89,0-73.7,0-110.47c-42.34,0-84.59,0-126.87,0
		C1.36,38.31,1.36,75.09,1.36,111.93z"/>
	<path class="st1" d="M0.16,132.17c0.75,0.05,1.5,0.1,2.23,0.15c0.06,0.08,0.14,0.14,0.14,0.21c0.09,1.2,0.3,1.55,1.07,1.75
		c0.83,0.21,2.19-0.22,2.61-0.84c0.45-0.65,0.29-1.36-0.4-1.71c-0.28-0.14-0.6-0.2-0.91-0.29c-0.5-0.15-1.01-0.26-1.49-0.44
		c-2.32-0.87-2.74-2.53-1.16-4.47c1.26-1.53,4.06-2.27,5.92-1.56c1.28,0.49,1.73,1.39,1.45,3.05c-0.33,0.02-0.68,0.05-1.03,0.06
		c-0.32,0.01-0.64,0-0.91,0c-0.1-0.09-0.2-0.14-0.21-0.2c-0.31-1.42-1.36-1.89-2.63-1.15c-0.56,0.32-0.9,0.8-0.85,1.47
		c0.04,0.65,0.56,0.81,1.07,0.96c0.8,0.24,1.62,0.42,2.4,0.73c1.57,0.61,1.99,1.67,1.38,3.26c-0.53,1.39-1.6,2.22-2.97,2.55
		c-1.03,0.25-2.13,0.28-3.2,0.28c-1.05,0-1.85-0.6-2.51-1.39C0.16,133.77,0.16,132.97,0.16,132.17z"/>
	<path class="st1" d="M87.8,131.79c0.13-0.64,0.23-1.14,0.35-1.71c1.44,0,2.86,0,4.45,0c-0.36,1.75-0.71,3.48-1.1,5.39
		c-0.96,0.16-1.96,0.37-2.97,0.49c-0.71,0.08-1.44,0.06-2.16,0.05c-2.42-0.03-4-1.42-4.02-3.81c-0.02-2.53,0.8-4.81,2.98-6.35
		c1.99-1.4,4.18-1.47,6.39-0.67c1.37,0.49,1.72,1.4,1.38,3.04c-0.73,0-1.47,0-2.31,0c-0.12-0.73-0.16-1.57-1.18-1.75
		c-1.13-0.2-2.2,0-3,0.81c-1.43,1.46-1.91,3.3-1.66,5.29c0.13,1.06,0.89,1.67,2,1.72c0.78,0.03,1.58-0.1,2.44-0.17
		c0.15-0.73,0.28-1.38,0.45-2.19C89.14,131.89,88.53,131.84,87.8,131.79z"/>
	<path class="st1" d="M30.52,131.54c-0.31,1.43-0.6,2.79-0.9,4.17c-0.8,0-1.54,0-2.35,0c0.76-3.58,1.5-7.09,2.26-10.63
		c2.03,0,4.07-0.18,6.06,0.05c1.81,0.21,2.44,1.99,1.38,3.57c-0.47,0.7-1.23,1.2-1.84,1.76c0.73,0.24,0.88,0.93,0.85,1.76
		c-0.03,1.12-0.01,2.24-0.01,3.45c-0.84,0-1.61,0-2.46,0c0-1.32,0-2.68,0-4.14C32.46,131.54,31.53,131.54,30.52,131.54z
		 M31.52,126.77c-0.2,0.94-0.38,1.81-0.58,2.78c0.83,0,1.54,0.02,2.25-0.01c0.7-0.03,1.2-0.41,1.47-1.05
		c0.39-0.93,0.05-1.58-0.95-1.71C33.04,126.7,32.36,126.77,31.52,126.77z"/>
	<path class="st1" d="M128.73,128.03c-0.7,0-1.33,0-1.96,0c-0.54-1.64-1.67-2.08-2.96-1.2c-0.51,0.35-0.85,0.86-0.67,1.41
		c0.12,0.37,0.6,0.71,0.99,0.87c0.88,0.36,1.84,0.52,2.71,0.9c1.35,0.58,1.67,1.41,1.24,2.8c-0.49,1.55-1.59,2.51-3.1,2.88
		c-1.03,0.25-2.14,0.34-3.19,0.26c-2.04-0.15-2.88-1.47-2.36-3.59c0.67,0,1.37,0,2.08,0c0.04,0.04,0.13,0.1,0.13,0.16
		c-0.02,0.82,0.16,1.52,1.08,1.75c0.91,0.23,2.25-0.23,2.68-0.93c0.43-0.7,0.26-1.31-0.51-1.65c-0.29-0.13-0.61-0.17-0.91-0.27
		c-0.75-0.25-1.54-0.44-2.24-0.8c-1.18-0.6-1.5-1.55-1.08-2.81c0.36-1.08,1.09-1.85,2.07-2.38c1.23-0.67,2.57-0.87,3.95-0.67
		C128.38,125.01,129.18,126.27,128.73,128.03z"/>
	<path class="st1" d="M108.49,133.92c1.76,0,3.3,0,5.01,0c-0.12,0.69-0.22,1.24-0.32,1.82c-2.49,0-4.88,0-7.45,0
		c0.76-3.59,1.5-7.11,2.26-10.71c2.39,0,4.77,0,7.28,0c-0.11,0.56-0.23,1.12-0.36,1.77c-1.66,0-3.25,0-4.92,0
		c-0.17,0.85-0.33,1.6-0.51,2.5c1.59,0,3.01,0,4.54,0c-0.13,0.67-0.23,1.21-0.35,1.83c-1.54,0-3.01,0-4.6,0
		C108.89,132.03,108.71,132.87,108.49,133.92z"/>
	<path class="st1" d="M46.84,124.99c0.93,0,1.8,0,2.83,0c0.48,3.54,0.96,7.07,1.45,10.7c-0.82,0-1.55,0-2.33,0
		c-0.13-0.69-0.26-1.38-0.39-2.1c-1.42,0-2.77,0-4.22,0c-0.39,0.67-0.81,1.38-1.25,2.13c-0.7,0-1.39,0-2.24,0
		C42.77,132.09,44.8,128.54,46.84,124.99z M48.24,131.64c-0.15-1.48-0.29-2.83-0.43-4.19c-0.08-0.02-0.16-0.03-0.24-0.05
		c-0.77,1.38-1.53,2.76-2.35,4.24C46.29,131.64,47.17,131.64,48.24,131.64z"/>
	<path class="st1" d="M71.79,131.07c-0.22,1.02-0.39,1.83-0.6,2.79c1.67,0,3.28,0,5.04,0c-0.12,0.68-0.2,1.21-0.31,1.82
		c-2.43,0-4.85,0-7.47,0c0.75-3.58,1.5-7.13,2.25-10.67c2.47,0,4.82,0,7.28,0c-0.12,0.61-0.23,1.14-0.36,1.76c-1.62,0-3.21,0-4.88,0
		c-0.2,0.83-0.38,1.59-0.58,2.48c1.54,0,2.99,0,4.59,0c-0.12,0.65-0.22,1.18-0.34,1.82C74.87,131.07,73.37,131.07,71.79,131.07z"/>
	<path class="st1" d="M18.41,126.8c-1.11,0-2.06,0-3.19,0c0.13-0.65,0.24-1.17,0.36-1.77c2.9,0,5.8,0,8.76,0
		c-0.11,0.57-0.21,1.1-0.33,1.71c-1.04,0-2.03,0-3.2,0c-0.66,3.03-1.3,6-1.96,9c-0.78,0-1.49,0-2.33,0
		C17.15,132.78,17.76,129.88,18.41,126.8z"/>
	<path class="st1" d="M60.06,135.73c-0.78,0-1.49,0-2.33,0c0.62-2.96,1.22-5.86,1.85-8.92c-1.1,0-2.04,0-3.13,0
		c0.11-0.7,0.2-1.23,0.3-1.79c2.94,0,5.8,0,8.77,0c-0.12,0.61-0.22,1.14-0.35,1.77c-1.07,0-2.1,0-3.2,0
		C61.33,129.79,60.71,132.7,60.06,135.73z"/>
	<path class="st1" d="M99.79,125.01c0.86,0,1.57,0,2.36,0c-0.76,3.57-1.5,7.07-2.26,10.67c-0.73,0-1.46,0-2.35,0
		C98.29,132.12,99.03,128.59,99.79,125.01z"/>
	<path class="st2" d="M1.36,111.93c0-36.84,0-73.62,0-110.47c42.28,0,84.53,0,126.87,0c0,36.78,0,73.59,0,110.47
		C86.01,111.93,43.76,111.93,1.36,111.93z M63.72,109.04c0.36,0.02,0.72,0.06,1.07,0.06c19.88,0,39.75,0,59.63,0
		c0.39,0,0.78-0.03,1.2-0.05c0-34.97,0-69.85,0-104.82c-0.57,0-1.04,0-1.51,0c-19.68,0-39.35,0-59.03,0c-0.44,0-0.88,0.02-1.32,0.02
		c-0.16-0.01-0.32-0.04-0.48-0.04c-19.48,0-38.96,0-58.44,0c-0.26,0-0.53,0.06-0.79,0.09c0,34.94,0,69.81,0,104.79
		c0.49,0,0.92,0,1.35,0c19.04,0,38.08,0,57.12,0C62.93,109.09,63.33,109.06,63.72,109.04z"/>
	<path class="st0" d="M63.72,109.04c-0.4,0.02-0.8,0.04-1.2,0.04c-19.04,0-38.08,0-57.12,0c-0.43,0-0.86,0-1.35,0
		c0-34.98,0-69.84,0-104.79c0.26-0.03,0.53-0.09,0.79-0.09c19.48,0,38.96,0,58.44,0c0.16,0,0.32,0.03,0.48,0.04
		c0.01,3.13,0.03,6.27,0.04,9.4c0,12.66,0,25.32,0,38c-12.81,0-25.43,0-38.21,0c0-12.71,0-25.35,0-37.97c-2.66,0-5.16,0-7.65,0
		c0,28.9,0,57.71,0,86.55c2.58,0,5.08,0,7.68,0c0-13.77,0-27.47,0-41.23c12.76,0,25.41,0,38.17,0c0,13.78,0,27.49,0,41.2
		c-0.01,0.44-0.04,0.87-0.04,1.31C63.75,104.02,63.74,106.53,63.72,109.04z"/>
	<path class="st3" d="M63.72,109.04c0.01-2.51,0.02-5.02,0.04-7.52c0-0.44,0.03-0.87,0.04-1.31c2.58,0,5.17,0,7.89,0
		c0-13.75,0-27.44,0-41.18c0.45-0.02,0.76-0.05,1.07-0.05c5.32,0,10.64-0.07,15.95,0.03c2.42,0.05,4.86,0.29,7.23,0.73
		c3.05,0.56,5.39,2.24,6.79,5.14c1.16,2.41,1.7,4.98,2.03,7.58c0.57,4.5,0.95,9.02,1.47,13.53c0.35,3.08,0.74,6.16,1.25,9.22
		c0.29,1.71,0.86,3.36,1.29,5c3.1,0,6,0,9.02,0c-0.28-0.52-0.52-0.92-0.72-1.34c-1.61-3.32-2.06-6.92-2.42-10.53
		c-0.21-2.14-0.33-4.29-0.54-6.43c-0.27-2.77-0.62-5.54-0.89-8.31c-0.31-3.06-0.84-6.07-1.94-8.95c-1.14-2.99-2.92-5.49-5.71-7.17
		c-1.82-1.1-3.79-1.84-5.79-2.17c1.64-0.44,3.4-0.78,5.06-1.39c3.18-1.17,5.84-3.07,7.73-5.96c2.55-3.89,2.99-8.26,2.93-12.73
		c-0.02-1.74-0.3-3.49-0.65-5.2c-0.71-3.46-2.18-6.55-4.72-9.11c-2.54-2.56-5.62-4.17-8.93-5.41c-3.51-1.32-7.18-1.84-10.89-1.88
		c-8.52-0.07-17.03-0.04-25.55-0.04c-0.32,0-0.64,0.04-0.95,0.06c-0.01-3.13-0.03-6.27-0.04-9.4c0.44-0.01,0.88-0.02,1.32-0.02
		c19.68,0,39.35,0,59.03,0c0.47,0,0.95,0,1.51,0c0,34.97,0,69.85,0,104.82c-0.42,0.02-0.81,0.05-1.2,0.05c-19.88,0-39.75,0-59.63,0
		C64.44,109.1,64.08,109.06,63.72,109.04z"/>
	<path class="st2" d="M63.81,13.65c0.32-0.02,0.64-0.06,0.95-0.06c8.52,0,17.03-0.03,25.55,0.04c3.71,0.03,7.38,0.56,10.89,1.88
		c3.31,1.24,6.4,2.85,8.93,5.41c2.53,2.56,4,5.64,4.72,9.11c0.35,1.71,0.63,3.46,0.65,5.2c0.06,4.46-0.38,8.84-2.93,12.73
		c-1.89,2.89-4.56,4.79-7.73,5.96c-1.66,0.61-3.42,0.95-5.06,1.39c2,0.32,3.96,1.07,5.79,2.17c2.79,1.68,4.57,4.18,5.71,7.17
		c1.1,2.88,1.63,5.89,1.94,8.95c0.28,2.77,0.62,5.53,0.89,8.31c0.21,2.14,0.32,4.29,0.54,6.43c0.36,3.61,0.81,7.2,2.42,10.53
		c0.2,0.42,0.44,0.83,0.72,1.34c-3.02,0-5.91,0-9.02,0c-0.43-1.63-1.01-3.29-1.29-5c-0.51-3.06-0.89-6.14-1.25-9.22
		c-0.52-4.51-0.89-9.03-1.47-13.53c-0.33-2.6-0.87-5.17-2.03-7.58c-1.39-2.9-3.73-4.57-6.79-5.14c-2.38-0.44-4.82-0.68-7.23-0.73
		c-5.32-0.11-10.64-0.04-15.95-0.03c-0.31,0-0.63,0.03-1.07,0.05c0,13.74,0,27.43,0,41.18c-2.72,0-5.31,0-7.89,0
		c0-13.71,0-27.42,0-41.2c-12.76,0-25.41,0-38.17,0c0,13.76,0,27.46,0,41.23c-2.61,0-5.1,0-7.68,0c0-28.84,0-57.65,0-86.55
		c2.49,0,4.99,0,7.65,0c0,12.62,0,25.26,0,37.97c12.78,0,25.4,0,38.21,0C63.81,38.97,63.81,26.31,63.81,13.65z M71.74,51.72
		c0.35,0.02,0.58,0.05,0.82,0.04c6.34-0.08,12.7,0.27,19.03-0.46c2.66-0.31,5.26-0.85,7.72-1.95c3.94-1.77,6.47-4.73,7.35-8.98
		c0.53-2.56,0.49-5.15,0.11-7.73c-0.79-5.24-3.72-8.67-8.69-10.42c-2.62-0.92-5.34-1.33-8.09-1.37c-5.8-0.09-11.59-0.04-17.39-0.04
		c-0.27,0-0.54,0.04-0.85,0.06C71.74,31.16,71.74,41.38,71.74,51.72z"/>
	<path class="st3" d="M71.74,51.72c0-10.34,0-20.56,0-30.86c0.32-0.02,0.58-0.06,0.85-0.06c5.8,0,11.6-0.05,17.39,0.04
		c2.74,0.04,5.47,0.45,8.09,1.37c4.97,1.75,7.9,5.18,8.69,10.42c0.39,2.59,0.43,5.17-0.11,7.73c-0.88,4.25-3.41,7.22-7.35,8.98
		c-2.46,1.1-5.06,1.64-7.72,1.95c-6.33,0.73-12.68,0.38-19.03,0.46C72.32,51.77,72.09,51.74,71.74,51.72z"/>
</g>
</svg>
