<?xml version="1.0" encoding="utf-8"?>
<!-- Generator: Adobe Illustrator 23.1.1, SVG Export Plug-In . SVG Version: 6.00 Build 0)  -->
<svg version="1.1" xmlns="http://www.w3.org/2000/svg" xmlns:xlink="http://www.w3.org/1999/xlink" x="0px" y="0px"
	 viewBox="0 0 574 110.5" style="enable-background:new 0 0 574 110.5;" xml:space="preserve">
<style type="text/css">
	.st0{fill:#012169;}
	.st1{clip-path:url(#SVGID_2_);fill:#FFFFFF;}
	.st2{clip-path:url(#SVGID_2_);fill:#4F6DA9;}
	.st3{clip-path:url(#SVGID_2_);fill:#8E9DC8;}
	.st4{clip-path:url(#SVGID_2_);}
	.st5{clip-path:url(#SVGID_4_);fill:#FFFFFF;}
</style>
<g id="HR_Strategies_Image">
</g>
<g id="Layer_2">
	<g>
		<path class="st0" d="M182.6,44.7c0.7-5-1.5-7.5-6.6-7.5c-3.9,0-8.3,2.1-9.2,6.4c-1.1,5.3,3.5,6,7.5,7c7.1,1.9,17.7,4,15.6,14
			C187.4,76.8,175.8,81,165.2,81c-11.3,0-18.4-4.4-15.4-16.8h10.8c-1.6,5.5,0.8,9.2,6.3,9.2c4.2,0,10.1-1.3,11.2-6.6
			c1.2-5.8-5.7-6.2-9.7-7.3c-6.5-1.7-15.3-4.9-13.5-13.6c2.4-11.3,13.9-16.3,24-16.3c9.6,0,15.9,5.2,13.8,15.1H182.6z"/>
		<polygon class="st0" points="201.7,30.6 241.8,30.6 240,38.8 225.3,38.8 216.6,80 206,80 214.7,38.8 200,38.8 		"/>
		<path class="st0" d="M247.5,80h-10.6l10.5-49.4h21c8.5,0.1,16.6,2.8,14.4,12.9c-1.4,6.4-6.4,10.7-12.8,12l0,0.1
			c8,0.9,6.9,5.9,6.3,12.7c-0.2,3.1-1,9,0.4,11.7H265c0-4.4,0.5-8.8,1-13.3c0.3-2.7,0.4-6.5-3-6.6h-11.2L247.5,80z M253.5,51.9h8.9
			c4.7-0.1,7.9-2.4,8.8-6.8s-1.4-6.2-6.1-6.3h-8.9L253.5,51.9z"/>
		<path class="st0" d="M279.7,80l28.3-49.4h12.6l6.7,49.4h-10.7l-1.3-10.5h-19.6L289.8,80H279.7z M314.4,61.3l-2.3-21.1H312
			l-11.7,21.1H314.4z"/>
		<polygon class="st0" points="335.2,30.6 375.2,30.6 373.5,38.8 358.8,38.8 350,80 339.4,80 348.2,38.8 333.5,38.8 		"/>
		<polygon class="st0" points="380.4,30.6 413.5,30.6 411.8,38.8 389.3,38.8 386.8,50.4 407.9,50.4 406.2,58.6 385.1,58.6 
			382.3,71.8 405.5,71.8 403.8,80 369.9,80 		"/>
		<path class="st0" d="M440.2,61.9l1.7-8.2h20.2l-5.2,24.7c-3.9,1.2-7.6,1.9-11.5,2.2c-2.4,0.2-5,0.5-11.5,0.5
			c-9.8,0-21.9-6.1-17.7-25.7c4.2-19.6,18.9-25.7,28.7-25.7c14.3,0,22.2,4.3,19.8,16.1h-11.3c1.3-6.3-2.3-8.4-8.1-8.4
			c-9.4,0-15.4,6.9-17.7,18.1c-2.4,11.1,0.7,18.1,10,18.1c4.2,0,7.2-0.6,10.1-1.1l2.2-10.4H440.2z"/>
		<polygon class="st0" points="476.9,80 466.3,80 476.7,30.6 487.3,30.6 		"/>
		<polygon class="st0" points="495.5,30.6 528.6,30.6 526.9,38.8 504.4,38.8 501.9,50.4 523,50.4 521.2,58.6 500.2,58.6 497.4,71.8 
			520.6,71.8 518.9,80 485,80 		"/>
		<path class="st0" d="M561.4,44.7c0.7-5-1.5-7.5-6.6-7.5c-3.9,0-8.3,2.1-9.2,6.4c-1.1,5.3,3.5,6,7.5,7c7.1,1.9,17.7,4,15.6,14
			C566.1,76.8,554.6,81,544,81c-11.3,0-18.4-4.4-15.4-16.8h10.8c-1.6,5.5,0.8,9.2,6.3,9.2c4.2,0,10.1-1.3,11.2-6.6
			c1.2-5.8-5.7-6.2-9.7-7.3c-6.5-1.7-15.3-4.9-13.5-13.6c2.4-11.3,13.9-16.3,24-16.3c9.6,0,15.9,5.2,13.8,15.1H561.4z"/>
	</g>
	<g>
		<g>
			<defs>
				<rect id="SVGID_1_" x="2.8" y="-5.1" width="120.6" height="120.8"/>
			</defs>
			<clipPath id="SVGID_2_">
				<use xlink:href="#SVGID_1_"  style="overflow:visible;"/>
			</clipPath>
			<rect x="3.3" y="3.2" class="st1" width="119.6" height="104.2"/>
			<rect x="6.4" y="6.5" class="st2" width="55.8" height="97.7"/>
			<rect x="62.3" y="6.5" class="st3" width="57.7" height="97.7"/>
			<polygon class="st1" points="19.3,95.7 19.3,14.9 26.6,14.9 26.6,50.4 62.8,50.4 62.8,16.3 64.4,16.3 64.4,94.3 62.8,94.3 
				62.8,57.1 26.6,57.1 26.6,95.7 			"/>
			<g class="st4">
				<defs>
					<rect id="SVGID_3_" x="2.8" y="-5.1" width="120.6" height="120.8"/>
				</defs>
				<clipPath id="SVGID_4_">
					<use xlink:href="#SVGID_3_"  style="overflow:visible;"/>
				</clipPath>
				<path class="st5" d="M69.5,50.5V21.6h10.7c7.7,0,22.3-1.1,22.3,14.4c0,13.8-12.8,14.4-23,14.4H69.5z M69.5,57.2H84
					c14.7,0,15.8,3.2,17.5,21.7c0.4,5.7,0.9,11.4,2.8,16.8h8.4c-3.2-4.9-2.8-11-4.3-24.1c-1-9.4-3.2-16.3-13.5-18l2.8-0.2
					c9.4-2.3,12.8-8.6,12.8-17.3c0-7.7-2.7-13.5-8.3-16.9c-6.2-3.8-12-4.3-19-4.3H62.2v80.8h7.3V57.2z"/>
			</g>
		</g>
	</g>
</g>
</svg>
