<?xml version="1.0" encoding="utf-8"?>
<!-- Generator: Adobe Illustrator 23.1.1, SVG Export Plug-In . SVG Version: 6.00 Build 0)  -->
<svg version="1.1" id="Layer_1" xmlns="http://www.w3.org/2000/svg" xmlns:xlink="http://www.w3.org/1999/xlink" x="0px" y="0px"
	 viewBox="0 0 144 144" style="enable-background:new 0 0 144 144;" xml:space="preserve">
<style type="text/css">
	.st0{fill:#FFFFFF;stroke:#012169;stroke-width:1.1228;}
	.st1{fill:#4F6DA9;}
	.st2{fill:#8E9DC8;}
	.st3{fill:#FFFFFF;}
	.st4{fill:#012169;}
</style>
<rect x="8.1" y="5" class="st0" width="128.2" height="111.8"/>
<rect x="11.4" y="8.4" class="st1" width="59.9" height="104.7"/>
<rect x="71.3" y="8.4" class="st2" width="61.9" height="104.8"/>
<path class="st3" d="M25.3,104.5V17.9h7.8v38h38.8V19.4h1.8V103h-1.8V63.1H33.1v41.4H25.3z"/>
<path class="st3" d="M79.1,56V25h11.5c8.3,0,23.9-1.2,23.9,15.5c0,14.8-13.7,15.5-24.7,15.5H79.1z M79.1,63.2h15.5
	c15.7,0,16.9,3.5,18.7,23.3c0.5,6.1,1,12.2,3,18h9c-3.5-5.3-3-11.8-4.6-25.8c-1.1-10.1-3.5-17.5-14.5-19.3l3-0.2
	c10.1-2.5,13.7-9.2,13.7-18.6c0-8.3-2.9-14.5-8.9-18.1c-6.6-4.1-12.8-4.6-20.4-4.6H71.3v86.6h7.8V63.2z"/>
<g>
	<path class="st4" d="M14.9,132.2c0.1-1.1-0.3-1.6-1.5-1.6c-0.9,0-1.8,0.5-2,1.4c-0.2,1.2,0.8,1.3,1.7,1.5c1.6,0.4,3.9,0.9,3.4,3.1
		c-0.6,2.7-3.1,3.6-5.4,3.6c-2.5,0-4-1-3.4-3.7h2.4c-0.3,1.2,0.2,2,1.4,2c0.9,0,2.2-0.3,2.5-1.4c0.3-1.3-1.3-1.4-2.1-1.6
		c-1.4-0.4-3.4-1.1-3-3c0.5-2.5,3-3.6,5.3-3.6c2.1,0,3.5,1.1,3,3.3H14.9z"/>
	<path class="st4" d="M23,129.1h8.8l-0.4,1.8h-3.2l-1.9,9H24l1.9-9h-3.2L23,129.1z"/>
	<path class="st4" d="M37,139.9h-2.3l2.3-10.8h4.6c1.9,0,3.6,0.6,3.2,2.8c-0.3,1.4-1.4,2.3-2.8,2.6l0,0c1.7,0.2,1.5,1.3,1.4,2.8
		c0,0.7-0.2,2,0.1,2.6h-2.6c0-1,0.1-1.9,0.2-2.9c0.1-0.6,0.1-1.4-0.7-1.5H38L37,139.9z M38.3,133.7h2c1,0,1.7-0.5,1.9-1.5
		c0.2-1-0.3-1.4-1.3-1.4h-1.9L38.3,133.7z"/>
	<path class="st4" d="M48.1,139.9l6.2-10.8h2.8l1.5,10.8h-2.3l-0.3-2.3h-4.3l-1.3,2.3H48.1z M55.7,135.8l-0.5-4.6h0l-2.6,4.6H55.7z"
		/>
	<path class="st4" d="M64.2,129.1H73l-0.4,1.8h-3.2l-1.9,9h-2.3l1.9-9h-3.2L64.2,129.1z"/>
	<path class="st4" d="M78.1,129.1h7.3l-0.4,1.8h-4.9l-0.5,2.5h4.6l-0.4,1.8h-4.6l-0.6,2.9h5.1l-0.4,1.8h-7.4L78.1,129.1z"/>
	<path class="st4" d="M95.2,135.9l0.4-1.8h4.4l-1.2,5.4c-0.8,0.3-1.7,0.4-2.5,0.5c-0.5,0-1.1,0.1-2.5,0.1c-2.1,0-4.8-1.3-3.9-5.6
		c0.9-4.3,4.1-5.6,6.3-5.6c3.1,0,4.9,0.9,4.3,3.5h-2.5c0.3-1.4-0.5-1.8-1.8-1.8c-2.1,0-3.4,1.5-3.9,4c-0.5,2.4,0.1,4,2.2,4
		c0.9,0,1.6-0.1,2.2-0.2l0.5-2.3H95.2z"/>
	<path class="st4" d="M107.3,139.9h-2.3l2.3-10.8h2.3L107.3,139.9z"/>
	<path class="st4" d="M115.4,129.1h7.3l-0.4,1.8h-4.9l-0.5,2.5h4.6l-0.4,1.8h-4.6l-0.6,2.9h5.1l-0.4,1.8h-7.4L115.4,129.1z"/>
	<path class="st4" d="M134,132.2c0.1-1.1-0.3-1.6-1.5-1.6c-0.9,0-1.8,0.5-2,1.4c-0.2,1.2,0.8,1.3,1.7,1.5c1.6,0.4,3.9,0.9,3.4,3.1
		c-0.6,2.7-3.1,3.6-5.4,3.6c-2.5,0-4-1-3.4-3.7h2.4c-0.3,1.2,0.2,2,1.4,2c0.9,0,2.2-0.3,2.5-1.4c0.3-1.3-1.3-1.4-2.1-1.6
		c-1.4-0.4-3.4-1.1-3-3c0.5-2.5,3-3.6,5.3-3.6c2.1,0,3.5,1.1,3,3.3H134z"/>
</g>
</svg>
