<?xml version="1.0" encoding="utf-8"?>
<!-- Generator: Adobe Illustrator 23.1.1, SVG Export Plug-In . SVG Version: 6.00 Build 0)  -->
<svg version="1.1" id="Layer_1" xmlns="http://www.w3.org/2000/svg" xmlns:xlink="http://www.w3.org/1999/xlink" x="0px" y="0px"
	 viewBox="0 0 129.4 129.6" style="enable-background:new 0 0 129.4 129.6;" xml:space="preserve">
<style type="text/css">
	.st0{fill:#4F6DA9;}
	.st1{fill:#8E9DC8;}
	.st2{fill:#FFFFFF;}
</style>
<rect x="3.9" y="12.4" class="st0" width="59.9" height="104.7"/>
<rect x="63.8" y="12.4" class="st1" width="61.9" height="104.8"/>
<path class="st2" d="M17.7,108.1V21.5h7.8v38h38.8V23h1.8v83.6h-1.8V66.7H25.5v41.4H17.7z"/>
<path class="st2" d="M71.5,59.6v-31h11.5c8.3,0,23.9-1.2,23.9,15.5c0,14.8-13.7,15.5-24.7,15.5H71.5z M71.5,66.8H87
	c15.7,0,16.9,3.5,18.7,23.3c0.5,6.1,1,12.2,3,18h9c-3.5-5.3-3-11.8-4.6-25.8c-1.1-10.1-3.5-17.5-14.5-19.3l3-0.2
	c10.1-2.5,13.7-9.2,13.7-18.6c0-8.3-2.9-14.5-8.9-18.1c-6.6-4.1-12.8-4.6-20.4-4.6H63.8v86.6h7.8V66.8z"/>
</svg>
