<svg id="HR_Strategies_Image" data-name="HR Strategies Image" xmlns="http://www.w3.org/2000/svg" viewBox="0 0 121.57 104.9"><title>safari-pinned-tab</title><path d="M63.72,109c-.39,0-.79,0-1.19,0H4.06V4.3a7.08,7.08,0,0,1,.79-.09H63.29c.16,0,.32,0,.47,0,0,3.14,0,6.27.05,9.4v38H25.6v-38H18v86.55h7.69V59H63.81v41.21c0,.43,0,.87-.05,1.31Q63.75,105.27,63.72,109Z" transform="translate(-4.06 -4.21)"/><path d="M63.72,109q0-3.77,0-7.52c0-.44,0-.88.05-1.31H71.7V59c.44,0,.76,0,1.07,0,5.32,0,10.64-.08,16,0a45.09,45.09,0,0,1,7.24.73,9,9,0,0,1,6.78,5.14,24.28,24.28,0,0,1,2,7.58c.57,4.5,1,9,1.47,13.53.35,3.08.73,6.16,1.24,9.21.29,1.71.86,3.36,1.3,5h9c-.28-.52-.51-.92-.72-1.34-1.61-3.33-2.06-6.92-2.42-10.53-.21-2.14-.32-4.29-.53-6.43-.28-2.77-.62-5.54-.9-8.31a34.66,34.66,0,0,0-1.94-9,13.64,13.64,0,0,0-5.71-7.17,16.14,16.14,0,0,0-5.78-2.16c1.64-.45,3.4-.79,5.06-1.4a15.22,15.22,0,0,0,7.73-6c2.55-3.89,3-8.26,2.93-12.72a27.81,27.81,0,0,0-.65-5.21,17.64,17.64,0,0,0-4.72-9.1,24.07,24.07,0,0,0-8.93-5.41,31.68,31.68,0,0,0-10.9-1.88c-8.51-.07-17,0-25.55,0-.32,0-.63,0-1,.06,0-3.13,0-6.26-.05-9.4l1.32,0h60.55V109.05c-.42,0-.81,0-1.2,0q-29.82,0-59.63,0C64.44,109.1,64.08,109.06,63.72,109Z" transform="translate(-4.06 -4.21)"/><path d="M71.74,51.72V20.86c.32,0,.58-.06.85-.06,5.8,0,11.6-.05,17.39,0a25.41,25.41,0,0,1,8.09,1.38,12.3,12.3,0,0,1,8.69,10.41,21.87,21.87,0,0,1-.11,7.74,12.12,12.12,0,0,1-7.35,9,26,26,0,0,1-7.72,1.95c-6.33.74-12.68.38-19,.46C72.32,51.77,72.09,51.74,71.74,51.72Z" transform="translate(-4.06 -4.21)"/></svg>