<svg id="HR_Strategies_Image" data-name="HR Strategies Image" xmlns="http://www.w3.org/2000/svg" viewBox="0 0 129.36 135.85"><defs><style>.cls-1{fill:#4e6da8;}.cls-2{fill:#fdfdfd;}.cls-3{fill:#909ec8;}</style></defs><title>hrs-blue</title><path class="cls-1" d="M129.52.17v113H.16V.17ZM1.36,111.93H128.23V1.45H1.36Z" transform="translate(-0.16 -0.17)"/><path class="cls-1" d="M.16,132.17l2.23.15c.06.08.14.14.15.21.09,1.2.3,1.55,1.06,1.74a2.9,2.9,0,0,0,2.62-.84,1.1,1.1,0,0,0-.41-1.71,5.56,5.56,0,0,0-.9-.29A15,15,0,0,1,3.42,131c-2.32-.87-2.75-2.53-1.16-4.46A5.81,5.81,0,0,1,8.18,125c1.28.49,1.73,1.39,1.45,3-.33,0-.68.05-1,.06s-.63,0-.91,0c-.1-.09-.2-.14-.21-.2a1.61,1.61,0,0,0-2.63-1.15A1.52,1.52,0,0,0,4,128.19c0,.65.56.81,1.07,1,.8.24,1.62.42,2.4.73,1.57.6,2,1.67,1.38,3.26a4.11,4.11,0,0,1-3,2.55,13.15,13.15,0,0,1-3.2.27,3.27,3.27,0,0,1-2.51-1.39Z" transform="translate(-0.16 -0.17)"/><path class="cls-1" d="M87.8,131.79l.35-1.71H92.6c-.36,1.75-.71,3.48-1.1,5.4-1,.16-2,.37-3,.48a17.27,17.27,0,0,1-2.16,0c-2.41,0-4-1.43-4-3.82a7.23,7.23,0,0,1,3-6.34,6.63,6.63,0,0,1,6.4-.67c1.36.49,1.72,1.4,1.37,3H90.8c-.12-.72-.17-1.57-1.18-1.75a3.25,3.25,0,0,0-3,.81,6.16,6.16,0,0,0-1.67,5.3,1.92,1.92,0,0,0,2,1.72,23.49,23.49,0,0,0,2.44-.17l.45-2.19Z" transform="translate(-0.16 -0.17)"/><path class="cls-1" d="M30.52,131.54l-.91,4.17H27.27l2.25-10.63a53.19,53.19,0,0,1,6.06,0c1.81.22,2.44,2,1.38,3.58a11.37,11.37,0,0,1-1.84,1.76c.73.24.88.93.85,1.76,0,1.12,0,2.24,0,3.45H33.5v-4.14Zm1-4.77-.58,2.78c.83,0,1.54,0,2.24,0a1.59,1.59,0,0,0,1.47-1c.39-.92.05-1.58-.95-1.71A19.54,19.54,0,0,0,31.52,126.77Z" transform="translate(-0.16 -0.17)"/><path class="cls-1" d="M128.73,128h-2c-.54-1.64-1.66-2.08-3-1.2a1.27,1.27,0,0,0-.67,1.41,1.78,1.78,0,0,0,1,.87c.88.36,1.85.53,2.72.9a2,2,0,0,1,1.23,2.8,4.11,4.11,0,0,1-3.1,2.88,10.39,10.39,0,0,1-3.19.26c-2-.14-2.88-1.47-2.36-3.59h2.07s.13.1.13.16c0,.82.16,1.52,1.08,1.76a2.79,2.79,0,0,0,2.68-.94,1,1,0,0,0-.5-1.64c-.29-.13-.62-.18-.92-.28a17,17,0,0,1-2.24-.79,2.07,2.07,0,0,1-1.09-2.81,4.19,4.19,0,0,1,2.07-2.38,6.23,6.23,0,0,1,4-.68A2.38,2.38,0,0,1,128.73,128Z" transform="translate(-0.16 -0.17)"/><path class="cls-1" d="M108.49,133.92h5l-.32,1.82h-7.45c.76-3.59,1.5-7.11,2.26-10.71h7.28l-.35,1.76H110l-.52,2.51H114l-.35,1.82h-4.59Z" transform="translate(-0.16 -0.17)"/><path class="cls-1" d="M46.84,125h2.82l1.46,10.7H48.79l-.39-2.1H44.18l-1.26,2.13H40.68C42.77,132.09,44.8,128.54,46.84,125Zm1.4,6.65-.43-4.19-.24,0-2.35,4.23Z" transform="translate(-0.16 -0.17)"/><path class="cls-1" d="M71.79,131.07l-.6,2.8h5l-.3,1.82H68.44c.76-3.59,1.51-7.14,2.25-10.68H78l-.35,1.76H72.73l-.58,2.48h4.59l-.35,1.82Z" transform="translate(-0.16 -0.17)"/><path class="cls-1" d="M18.41,126.8H15.22l.36-1.77h8.76L24,126.74h-3.2l-1.95,9H16.53Z" transform="translate(-0.16 -0.17)"/><path class="cls-1" d="M60.06,135.73H57.73l1.85-8.92H56.45l.3-1.8h8.77l-.35,1.78H62Z" transform="translate(-0.16 -0.17)"/><path class="cls-1" d="M99.79,125h2.36l-2.26,10.67H97.53C98.29,132.12,99,128.59,99.79,125Z" transform="translate(-0.16 -0.17)"/><path class="cls-2" d="M1.36,111.93V1.45H128.23V111.93ZM63.72,109c.36,0,.72.06,1.08.06q29.82,0,59.63,0c.39,0,.78,0,1.2,0V4.23H65.08l-1.32,0c-.15,0-.31,0-.47,0H4.85a7.08,7.08,0,0,0-.79.09V109.09H62.53C62.93,109.09,63.33,109.06,63.72,109Z" transform="translate(-0.16 -0.17)"/><path class="cls-1" d="M63.72,109c-.39,0-.79,0-1.19,0H4.06V4.3a7.08,7.08,0,0,1,.79-.09H63.29c.16,0,.32,0,.47,0,0,3.14,0,6.27.05,9.4v38H25.6v-38H18v86.55h7.69V59H63.81v41.21c0,.43,0,.87-.05,1.31Q63.75,105.27,63.72,109Z" transform="translate(-0.16 -0.17)"/><path class="cls-3" d="M63.72,109q0-3.77,0-7.52c0-.44,0-.88.05-1.31H71.7V59c.44,0,.76,0,1.07,0,5.32,0,10.64-.08,16,0a45.09,45.09,0,0,1,7.24.73,9,9,0,0,1,6.78,5.14,24.28,24.28,0,0,1,2,7.58c.57,4.5,1,9,1.47,13.53.35,3.08.73,6.16,1.24,9.21.29,1.71.86,3.36,1.3,5h9c-.28-.52-.51-.92-.72-1.34-1.61-3.33-2.06-6.92-2.42-10.53-.21-2.14-.32-4.29-.53-6.43-.28-2.77-.62-5.54-.9-8.31a34.66,34.66,0,0,0-1.94-9,13.64,13.64,0,0,0-5.71-7.17,16.14,16.14,0,0,0-5.78-2.16c1.64-.45,3.4-.79,5.06-1.4a15.22,15.22,0,0,0,7.73-6c2.55-3.89,3-8.26,2.93-12.72a27.81,27.81,0,0,0-.65-5.21,17.64,17.64,0,0,0-4.72-9.1,24.07,24.07,0,0,0-8.93-5.41,31.68,31.68,0,0,0-10.9-1.88c-8.51-.07-17,0-25.55,0-.32,0-.63,0-1,.06,0-3.13,0-6.26-.05-9.4l1.32,0h60.55V109.05c-.42,0-.81,0-1.2,0q-29.82,0-59.63,0C64.44,109.1,64.08,109.06,63.72,109Z" transform="translate(-0.16 -0.17)"/><path class="cls-2" d="M63.81,13.65c.32,0,.63-.06,1-.06,8.52,0,17,0,25.55,0a31.68,31.68,0,0,1,10.9,1.88,24.07,24.07,0,0,1,8.93,5.41,17.64,17.64,0,0,1,4.72,9.1,27.81,27.81,0,0,1,.65,5.21c.06,4.46-.38,8.83-2.93,12.72a15.22,15.22,0,0,1-7.73,6c-1.66.61-3.42,1-5.06,1.4a16.14,16.14,0,0,1,5.78,2.16,13.64,13.64,0,0,1,5.71,7.17,34.66,34.66,0,0,1,1.94,9c.28,2.77.62,5.54.9,8.31.21,2.14.32,4.29.53,6.43.36,3.61.81,7.2,2.42,10.53.21.42.44.82.72,1.34h-9c-.44-1.64-1-3.29-1.3-5-.51-3-.89-6.13-1.24-9.21-.52-4.51-.9-9-1.47-13.53a24.28,24.28,0,0,0-2-7.58A9,9,0,0,0,96,59.74,45.09,45.09,0,0,0,88.72,59c-5.31-.11-10.63,0-16,0-.31,0-.63,0-1.07,0v41.19H63.81V59H25.64v41.23H18V13.68H25.6v38H63.81Zm7.93,38.07c.35,0,.58.05.82,0,6.34-.08,12.69.28,19-.46a26,26,0,0,0,7.72-1.95,12.12,12.12,0,0,0,7.35-9,21.87,21.87,0,0,0,.11-7.74,12.3,12.3,0,0,0-8.69-10.41A25.41,25.41,0,0,0,90,20.84c-5.79-.09-11.59,0-17.39,0-.27,0-.53,0-.85.06Z" transform="translate(-0.16 -0.17)"/><path class="cls-3" d="M71.74,51.72V20.86c.32,0,.58-.06.85-.06,5.8,0,11.6-.05,17.39,0a25.41,25.41,0,0,1,8.09,1.38,12.3,12.3,0,0,1,8.69,10.41,21.87,21.87,0,0,1-.11,7.74,12.12,12.12,0,0,1-7.35,9,26,26,0,0,1-7.72,1.95c-6.33.74-12.68.38-19,.46C72.32,51.77,72.09,51.74,71.74,51.72Z" transform="translate(-0.16 -0.17)"/></svg>