<svg id="HR_Strategies_Image" data-name="HR Strategies Image" xmlns="http://www.w3.org/2000/svg" viewBox="0 0 574 110.47"><defs><style>.cls-1{fill:#fff;}.cls-2{fill:#fdfdfd;}.cls-3{fill:#4e6da8;}.cls-4{fill:#909ec8;}</style></defs><title>hrs-long-white</title><path class="cls-1" d="M151.17,65.49l10.46.7c.28.39.65.67.67,1,.43,5.64,1.42,7.29,5,8.21,3.91,1,10.26-1,12.28-4s1.37-6.38-1.9-8A25.45,25.45,0,0,0,173.43,62c-2.33-.69-4.72-1.22-7-2.07-10.89-4.09-12.89-11.89-5.43-21,5.91-7.21,19.05-10.68,27.79-7.34,6,2.3,8.1,6.53,6.81,14.3-1.55.09-3.19.22-4.83.27s-3,0-4.29,0c-.47-.42-.92-.63-1-.92-1.44-6.68-6.37-8.89-12.37-5.42-2.61,1.51-4.2,3.77-4,6.91s2.62,3.8,5,4.51c3.77,1.11,7.63,2,11.27,3.41,7.37,2.86,9.33,7.84,6.47,15.3-2.51,6.53-7.54,10.41-13.94,12a62.7,62.7,0,0,1-15,1.29c-4.92,0-8.71-2.79-11.77-6.53Z" transform="translate(-1.36 -1.45)"/><path class="cls-1" d="M442.63,63.73l1.62-8h20.9C463.47,63.91,461.82,72,460,81c-4.5.76-9.2,1.74-13.94,2.28a81.29,81.29,0,0,1-10.12.22c-11.34-.17-18.79-6.68-18.88-17.9-.09-11.9,3.75-22.58,14-29.8,9.34-6.59,19.62-6.88,30-3.14,6.42,2.32,8.1,6.56,6.46,14.29H456.68c-.56-3.41-.77-7.39-5.53-8.22-5.32-.92-10.34,0-14.1,3.81-6.72,6.86-8.95,15.49-7.8,24.84.61,5,4.16,7.86,9.39,8.08,3.68.15,7.4-.48,11.45-.78.7-3.43,1.32-6.49,2.1-10.3Z" transform="translate(-1.36 -1.45)"/><path class="cls-1" d="M253.66,62.53c-1.45,6.72-2.83,13.09-4.24,19.6h-11C242,65.31,245.46,48.86,249,32.21c9.53,0,19.1-.84,28.45.25,8.51,1,11.45,9.34,6.48,16.78-2.2,3.27-5.79,5.61-8.64,8.28,3.44,1.13,4.12,4.38,4,8.25-.16,5.25,0,10.5,0,16.2H267.7V62.53Zm4.72-22.4c-.93,4.43-1.78,8.51-2.73,13,3.88,0,7.22.11,10.54,0a7.46,7.46,0,0,0,6.89-4.92c1.83-4.35.23-7.43-4.46-8C265.52,39.81,262.32,40.13,258.38,40.13Z" transform="translate(-1.36 -1.45)"/><path class="cls-1" d="M574.78,46.07H565.6c-2.54-7.71-7.82-9.79-13.91-5.65-2.38,1.62-4,4-3.15,6.61.56,1.72,2.8,3.35,4.66,4.1,4.13,1.69,8.65,2.46,12.74,4.22,6.34,2.73,7.85,6.64,5.81,13.16A19.31,19.31,0,0,1,557.18,82a48.84,48.84,0,0,1-15,1.24c-9.57-.69-13.52-6.91-11.08-16.87h9.76c.17.2.6.49.6.76-.09,3.86.74,7.13,5.08,8.24S557.1,74.27,559.12,71s1.22-6.16-2.38-7.75c-1.36-.6-2.88-.8-4.29-1.28-3.54-1.19-7.24-2.07-10.54-3.74-5.56-2.81-7.06-7.27-5.09-13.17a19.6,19.6,0,0,1,9.71-11.2,29.14,29.14,0,0,1,18.52-3.15C573.12,31.89,576.91,37.78,574.78,46.07Z" transform="translate(-1.36 -1.45)"/><path class="cls-1" d="M499.76,73.71h23.52c-.57,3.23-1,5.84-1.51,8.54h-35c3.56-16.85,7-33.39,10.61-50.29h34.2c-.53,2.65-1.06,5.24-1.67,8.29H506.82c-.81,4-1.54,7.53-2.41,11.76h21.33c-.6,3.14-1.09,5.66-1.65,8.57H502.52C501.62,64.84,500.79,68.78,499.76,73.71Z" transform="translate(-1.36 -1.45)"/><path class="cls-1" d="M310.3,31.8h13.27c2.25,16.6,4.5,33.17,6.81,50.21H319.46c-.61-3.23-1.21-6.47-1.84-9.87H297.8c-1.83,3.13-3.8,6.48-5.88,10H281.4ZM316.88,63c-.71-7-1.36-13.31-2-19.68l-1.14-.23c-3.59,6.49-7.19,13-11,19.91Z" transform="translate(-1.36 -1.45)"/><path class="cls-1" d="M387.43,60.34c-1,4.78-1.85,8.59-2.82,13.11h23.65c-.54,3.21-.95,5.68-1.44,8.55H371.74Q377,56.77,382.28,31.89h34.19c-.58,2.87-1.09,5.36-1.67,8.24H391.87c-.92,3.9-1.77,7.48-2.75,11.64h21.55c-.57,3.07-1,5.52-1.61,8.57Z" transform="translate(-1.36 -1.45)"/><path class="cls-1" d="M216.82,40.27h-15L203.52,32h41.15l-1.55,8h-15C225,54.19,222,68.15,218.92,82.22H208C210.91,68.35,213.77,54.74,216.82,40.27Z" transform="translate(-1.36 -1.45)"/><path class="cls-1" d="M352.36,82.2H341.42c2.89-13.91,5.71-27.5,8.69-41.88H335.44c.54-3.26.95-5.76,1.39-8.42H378c-.56,2.87-1.05,5.37-1.62,8.32h-15C358.35,54.3,355.42,68,352.36,82.2Z" transform="translate(-1.36 -1.45)"/><path class="cls-1" d="M478.91,31.89H490c-3.55,16.78-7,33.22-10.61,50.09H468.32C471.86,65.26,475.36,48.69,478.91,31.89Z" transform="translate(-1.36 -1.45)"/><path class="cls-2" d="M1.36,111.93V1.45H128.23V111.93ZM63.72,109c.36,0,.72.06,1.08.06q29.82,0,59.63,0c.39,0,.78,0,1.2,0V4.23H65.08l-1.32,0c-.15,0-.31,0-.47,0H4.85a7.08,7.08,0,0,0-.79.09V109.09H62.53C62.93,109.09,63.33,109.06,63.72,109Z" transform="translate(-1.36 -1.45)"/><path class="cls-3" d="M63.72,109c-.39,0-.79,0-1.19,0H4.06V4.3a7.08,7.08,0,0,1,.79-.09H63.29c.16,0,.32,0,.47,0,0,3.14,0,6.27.05,9.4v38H25.6v-38H18v86.55h7.69V59H63.81v41.21c0,.43,0,.87-.05,1.31Q63.75,105.27,63.72,109Z" transform="translate(-1.36 -1.45)"/><path class="cls-4" d="M63.72,109q0-3.77,0-7.52c0-.44,0-.88.05-1.31H71.7V59c.44,0,.76,0,1.07,0,5.32,0,10.64-.08,16,0a45.09,45.09,0,0,1,7.24.73,9,9,0,0,1,6.78,5.14,24.28,24.28,0,0,1,2,7.58c.57,4.5,1,9,1.47,13.53.35,3.08.73,6.16,1.24,9.21.29,1.71.86,3.36,1.3,5h9c-.28-.52-.51-.92-.72-1.34-1.61-3.33-2.06-6.92-2.42-10.53-.21-2.14-.32-4.29-.53-6.43-.28-2.77-.62-5.54-.9-8.31a34.66,34.66,0,0,0-1.94-9,13.64,13.64,0,0,0-5.71-7.17,16.14,16.14,0,0,0-5.78-2.16c1.64-.45,3.4-.79,5.06-1.4a15.22,15.22,0,0,0,7.73-6c2.55-3.89,3-8.26,2.93-12.72a27.81,27.81,0,0,0-.65-5.21,17.64,17.64,0,0,0-4.72-9.1,24.07,24.07,0,0,0-8.93-5.41,31.68,31.68,0,0,0-10.9-1.88c-8.51-.07-17,0-25.55,0-.32,0-.63,0-1,.06,0-3.13,0-6.26-.05-9.4l1.32,0h60.55V109.05c-.42,0-.81,0-1.2,0q-29.82,0-59.63,0C64.44,109.1,64.08,109.06,63.72,109Z" transform="translate(-1.36 -1.45)"/><path class="cls-2" d="M63.81,13.65c.32,0,.63-.06,1-.06,8.52,0,17,0,25.55,0a31.68,31.68,0,0,1,10.9,1.88,24.07,24.07,0,0,1,8.93,5.41,17.64,17.64,0,0,1,4.72,9.1,27.81,27.81,0,0,1,.65,5.21c.06,4.46-.38,8.83-2.93,12.72a15.22,15.22,0,0,1-7.73,6c-1.66.61-3.42,1-5.06,1.4a16.14,16.14,0,0,1,5.78,2.16,13.64,13.64,0,0,1,5.71,7.17,34.66,34.66,0,0,1,1.94,9c.28,2.77.62,5.54.9,8.31.21,2.14.32,4.29.53,6.43.36,3.61.81,7.2,2.42,10.53.21.42.44.82.72,1.34h-9c-.44-1.64-1-3.29-1.3-5-.51-3-.89-6.13-1.24-9.21-.52-4.51-.9-9-1.47-13.53a24.28,24.28,0,0,0-2-7.58A9,9,0,0,0,96,59.74,45.09,45.09,0,0,0,88.72,59c-5.31-.11-10.63,0-16,0-.31,0-.63,0-1.07,0v41.19H63.81V59H25.64v41.23H18V13.68H25.6v38H63.81Zm7.93,38.07c.35,0,.58.05.82,0,6.34-.08,12.69.28,19-.46a26,26,0,0,0,7.72-1.95,12.12,12.12,0,0,0,7.35-9,21.87,21.87,0,0,0,.11-7.74,12.3,12.3,0,0,0-8.69-10.41A25.41,25.41,0,0,0,90,20.84c-5.79-.09-11.59,0-17.39,0-.27,0-.53,0-.85.06Z" transform="translate(-1.36 -1.45)"/><path class="cls-4" d="M71.74,51.72V20.86c.32,0,.58-.06.85-.06,5.8,0,11.6-.05,17.39,0a25.41,25.41,0,0,1,8.09,1.38,12.3,12.3,0,0,1,8.69,10.41,21.87,21.87,0,0,1-.11,7.74,12.12,12.12,0,0,1-7.35,9,26,26,0,0,1-7.72,1.95c-6.33.74-12.68.38-19,.46C72.32,51.77,72.09,51.74,71.74,51.72Z" transform="translate(-1.36 -1.45)"/></svg>