<svg id="HR_Strategies_Image" data-name="HR Strategies Image" xmlns="http://www.w3.org/2000/svg" viewBox="0 0 129.36 113.04"><defs><style>.cls-1{fill:#4e6da8;}.cls-2{fill:#fdfdfd;}.cls-3{fill:#909ec8;}</style></defs><title>HR Strategies-short</title><path class="cls-1" d="M129.36,0V113H0V0ZM1.2,111.76H128.07V1.28H1.2Z"/><path class="cls-2" d="M1.2,111.76V1.28H128.07V111.76Zm62.36-2.89c.36,0,.72.06,1.07.06h59.63c.39,0,.78,0,1.2-.05V4.06H64.92l-1.32,0c-.16,0-.32,0-.48,0H4.68a6.9,6.9,0,0,0-.78.09V108.92H5.24"/><path class="cls-1" d="M63.6,4.08c0,3.14,0,6.27,0,9.4v38H25.43v-38H17.79v86.55h7.68V58.83H63.64V100c0,.43,0,.87,0,1.31q0,3.75,0,7.52c-.4,0-.8,0-1.2,0H3.9V4.13"/><path class="cls-3" d="M63.56,108.87q0-3.77,0-7.52c0-.44,0-.88,0-1.31h7.89V58.85c.45,0,.76,0,1.08,0,5.31,0,10.63-.08,16,0a44.86,44.86,0,0,1,7.23.73,9,9,0,0,1,6.79,5.14,24.56,24.56,0,0,1,2,7.58c.57,4.5.94,9,1.46,13.53.36,3.07.74,6.16,1.25,9.21.28,1.71.86,3.36,1.29,5h9c-.28-.52-.52-.92-.72-1.34-1.61-3.33-2.06-6.92-2.42-10.53-.22-2.14-.33-4.29-.54-6.43-.27-2.77-.61-5.54-.89-8.31a35.08,35.08,0,0,0-1.94-9,13.69,13.69,0,0,0-5.71-7.17,16.25,16.25,0,0,0-5.79-2.16c1.64-.45,3.4-.79,5.06-1.4a15.18,15.18,0,0,0,7.73-6c2.55-3.89,3-8.26,2.93-12.72a27.81,27.81,0,0,0-.65-5.21,17.62,17.62,0,0,0-4.71-9.1A24.11,24.11,0,0,0,101,15.34a31.67,31.67,0,0,0-10.89-1.88c-8.52-.07-17,0-25.55,0-.32,0-.64,0-1,.06,0-3.13,0-6.26,0-9.4l1.32,0h60.54V108.88c-.42,0-.81.05-1.2.05H64.63C64.28,108.93,63.92,108.89,63.56,108.87Z"/><path class="cls-2" d="M63.64,13.48c.32,0,.64-.06,1-.06,8.51,0,17,0,25.55,0A31.67,31.67,0,0,1,101,15.34,24.11,24.11,0,0,1,110,20.75a17.62,17.62,0,0,1,4.71,9.1,27.81,27.81,0,0,1,.65,5.21c.07,4.46-.38,8.83-2.93,12.72a15.18,15.18,0,0,1-7.73,6c-1.66.61-3.42.95-5.06,1.4a16.25,16.25,0,0,1,5.79,2.16,13.69,13.69,0,0,1,5.71,7.17,35.08,35.08,0,0,1,1.94,9c.28,2.77.62,5.54.89,8.31.21,2.14.32,4.29.54,6.43.36,3.61.81,7.2,2.42,10.53.2.42.44.82.72,1.34h-9c-.43-1.64-1-3.29-1.29-5-.51-3-.89-6.14-1.25-9.21-.52-4.51-.89-9-1.46-13.53a24.56,24.56,0,0,0-2-7.58,9,9,0,0,0-6.79-5.14,44.86,44.86,0,0,0-7.23-.73c-5.32-.11-10.64,0-16,0-.32,0-.63,0-1.08,0V100H63.64V58.83H25.47v41.23H17.79V13.51h7.64v38H63.64Zm7.93,38.07c.35,0,.59.05.82,0,6.34-.08,12.7.28,19-.46a26.09,26.09,0,0,0,7.72-2,12.14,12.14,0,0,0,7.35-9,21.87,21.87,0,0,0,.1-7.74A12.27,12.27,0,0,0,97.9,22.05a25.35,25.35,0,0,0-8.08-1.38c-5.8-.09-11.6,0-17.39,0-.27,0-.54,0-.86.06Z"/><path class="cls-3" d="M71.57,51.55V20.69c.32,0,.59-.06.86-.06,5.79,0,11.59-.05,17.39,0a25.35,25.35,0,0,1,8.08,1.38,12.27,12.27,0,0,1,8.69,10.41,21.87,21.87,0,0,1-.1,7.74,12.14,12.14,0,0,1-7.35,9,26.09,26.09,0,0,1-7.72,2c-6.33.74-12.69.38-19,.46C72.16,51.6,71.92,51.57,71.57,51.55Z"/></svg>