<svg id="HR_Strategies_Image" data-name="HR Strategies Image" xmlns="http://www.w3.org/2000/svg" viewBox="0 0 129.36 113.04"><defs><style>.cls-1{fill:#4e6da8;}.cls-2{fill:#fdfdfd;}.cls-3{fill:#909ec8;}</style></defs><title>logo-short</title><path class="cls-1" d="M129.67,8.46v113H.31V8.46ZM1.51,120.21H128.38V9.74H1.51Z" transform="translate(-0.31 -8.46)"/><path class="cls-2" d="M1.51,120.21V9.74H128.38V120.21Zm62.36-2.88c.36,0,.72.06,1.08.06h59.63c.39,0,.78,0,1.2,0V12.51H65.23l-1.32,0a3.73,3.73,0,0,0-.47,0H5a6.82,6.82,0,0,0-.79.09V117.37H5.56" transform="translate(-0.31 -8.46)"/><path class="cls-1" d="M63.91,12.54c0,3.13,0,6.27.05,9.4v38H25.75V22H18.1v86.55h7.68V67.29H64v41.2c0,.44,0,.88-.05,1.31q0,3.77,0,7.53c-.4,0-.79,0-1.19,0H4.21V12.59" transform="translate(-0.31 -8.46)"/><path class="cls-3" d="M63.87,117.33q0-3.77,0-7.53c0-.43,0-.87.05-1.31h7.89V67.31c.44,0,.76,0,1.07,0,5.32,0,10.64-.07,16,0a44,44,0,0,1,7.24.73,8.94,8.94,0,0,1,6.78,5.13,24.28,24.28,0,0,1,2,7.58c.57,4.5,1,9,1.47,13.53.35,3.08.73,6.16,1.24,9.22.29,1.7.86,3.36,1.29,5h9c-.28-.51-.52-.91-.72-1.34-1.61-3.32-2.06-6.91-2.42-10.52-.21-2.14-.32-4.29-.54-6.43-.27-2.78-.61-5.54-.89-8.31a34.66,34.66,0,0,0-1.94-8.95,13.69,13.69,0,0,0-5.71-7.17,16.4,16.4,0,0,0-5.79-2.17c1.64-.44,3.41-.78,5.07-1.39a15.22,15.22,0,0,0,7.73-6c2.55-3.89,3-8.27,2.93-12.73a28.56,28.56,0,0,0-.65-5.2,17.67,17.67,0,0,0-4.72-9.1,23.94,23.94,0,0,0-8.93-5.41,31.45,31.45,0,0,0-10.9-1.88c-8.51-.07-17,0-25.55,0-.32,0-.63,0-.95.06,0-3.13,0-6.27-.05-9.4l1.32,0h60.55V117.34c-.42,0-.81,0-1.2,0H65C64.59,117.39,64.23,117.35,63.87,117.33Z" transform="translate(-0.31 -8.46)"/><path class="cls-2" d="M64,21.94c.32,0,.63-.06.95-.06,8.52,0,17,0,25.55,0a31.45,31.45,0,0,1,10.9,1.88,23.94,23.94,0,0,1,8.93,5.41,17.67,17.67,0,0,1,4.72,9.1,28.56,28.56,0,0,1,.65,5.2c.06,4.46-.38,8.84-2.93,12.73a15.22,15.22,0,0,1-7.73,6c-1.66.61-3.43.95-5.07,1.39a16.4,16.4,0,0,1,5.79,2.17,13.69,13.69,0,0,1,5.71,7.17,34.66,34.66,0,0,1,1.94,8.95c.28,2.77.62,5.53.89,8.31.22,2.14.33,4.29.54,6.43.36,3.61.81,7.2,2.42,10.52.2.43.44.83.72,1.34h-9c-.43-1.63-1-3.29-1.29-5-.51-3.06-.89-6.14-1.24-9.22-.52-4.5-.9-9-1.47-13.53a24.28,24.28,0,0,0-2-7.58A8.94,8.94,0,0,0,96.11,68a44,44,0,0,0-7.24-.73c-5.31-.11-10.63,0-16,0-.31,0-.63,0-1.07,0v41.18H64V67.29H25.78v41.23H18.1V22h7.65v38H64ZM71.89,60c.34,0,.58,0,.81,0,6.35-.08,12.7.27,19-.46a26,26,0,0,0,7.72-2,12.13,12.13,0,0,0,7.35-9,22.05,22.05,0,0,0,.11-7.73A12.3,12.3,0,0,0,98.22,30.5a25.4,25.4,0,0,0-8.09-1.37c-5.79-.09-11.59,0-17.39,0-.27,0-.54,0-.85.06Z" transform="translate(-0.31 -8.46)"/><path class="cls-3" d="M71.89,60V29.15c.31,0,.58-.06.85-.06,5.8,0,11.6-.05,17.39,0a25.4,25.4,0,0,1,8.09,1.37,12.3,12.3,0,0,1,8.69,10.42,22.05,22.05,0,0,1-.11,7.73,12.13,12.13,0,0,1-7.35,9,26,26,0,0,1-7.72,2c-6.33.73-12.68.38-19,.46C72.47,60.05,72.23,60,71.89,60Z" transform="translate(-0.31 -8.46)"/></svg>